<?xml version="1.0" standalone="no"?>
<!DOCTYPE svg PUBLIC "-//W3C//DTD SVG 20010904//EN"
 "http://www.w3.org/TR/2001/REC-SVG-20010904/DTD/svg10.dtd">
<svg version="1.0" xmlns="http://www.w3.org/2000/svg"
 width="3400.000000pt" height="2000.000000pt" viewBox="0 0 3400.000000 2000.000000"
 preserveAspectRatio="xMidYMid meet">

<g transform="translate(0.000000,2000.000000) scale(0.100000,-0.100000)"
fill="#000000" stroke="none">
<path d="M6290 14208 l-30 -41 0 -727 0 -727 28 -36 c15 -20 33 -36 40 -37 9
0 12 167 12 805 0 527 -3 805 -10 805 -5 0 -23 -19 -40 -42z"/>
<path d="M6375 14240 c3 -6 -1 -7 -9 -4 -14 6 -16 -75 -16 -797 1 -709 2 -802
15 -785 11 14 15 16 15 5 0 -9 11 -14 30 -15 17 -1 30 3 30 7 0 5 9 9 21 9 13
0 18 -4 13 -12 -4 -6 -3 -8 4 -4 23 14 513 47 584 39 31 -4 52 -2 57 5 6 9
283 28 541 35 198 6 211 7 205 17 -3 6 5 10 18 10 14 0 27 7 31 15 3 8 11 15
18 14 10 0 10 -2 1 -6 -29 -11 -9 -21 45 -21 31 -1 85 -4 120 -7 56 -6 62 -5
62 12 0 12 3 14 8 6 7 -11 16 -11 152 2 91 9 329 22 526 30 27 1 55 5 62 9 7
4 12 2 12 -3 0 -6 4 -11 9 -11 6 0 10 252 11 645 0 476 -2 645 -11 645 -6 0
-9 -7 -6 -15 4 -8 2 -17 -3 -20 -6 -4 -10 7 -10 24 0 20 6 31 18 34 15 3 -16
9 -115 22 -18 2 -33 -1 -33 -6 0 -6 -9 -7 -22 -3 -13 4 -37 6 -55 5 -17 -1
-34 3 -38 9 -4 7 -38 11 -83 10 -43 -1 -94 2 -114 6 -42 7 -92 -2 -83 -16 3
-6 -3 -10 -14 -10 -12 0 -21 4 -21 9 0 28 -263 40 -324 15 -13 -5 -23 -2 -31
9 -9 12 -36 16 -126 19 -63 3 -105 2 -95 0 14 -3 16 -6 6 -12 -7 -4 -29 -1
-49 8 -45 19 -172 26 -356 19 -11 0 -67 5 -125 12 -58 6 -146 10 -197 9 -52
-2 -87 0 -80 5 7 5 4 6 -8 2 -49 -17 -84 -17 -100 -2 -11 12 -36 16 -88 16
-40 1 -119 3 -177 6 -127 6 -193 6 -200 -2 -3 -3 16 -4 42 -2 25 2 44 1 41 -3
-8 -15 -83 -9 -89 7 -4 8 -10 15 -16 15 -5 0 -6 -4 -3 -10z m205 -20 c0 -5 -4
-10 -10 -10 -5 0 -10 5 -10 10 0 6 5 10 10 10 6 0 10 -4 10 -10z m-47 -7 c-7
-2 -19 -2 -25 0 -7 3 -2 5 12 5 14 0 19 -2 13 -5z m166 -9 c10 -9 -55 -3 -69
6 -10 6 -2 7 25 3 22 -3 42 -7 44 -9z m80 0 c2 -2 -7 -4 -22 -4 -14 0 -29 5
-32 10 -6 10 42 4 54 -6z m64 -1 c-7 -2 -21 -2 -30 0 -10 3 -4 5 12 5 17 0 24
-2 18 -5z m-323 -13 c18 -12 2 -12 -25 0 -13 6 -15 9 -5 9 8 0 22 -4 30 -9z
m520 0 c0 -5 -4 -10 -10 -10 -5 0 -10 5 -10 10 0 6 5 10 10 10 6 0 10 -4 10
-10z m55 0 c4 -6 -6 -10 -22 -10 -22 0 -25 2 -13 10 19 12 27 12 35 0z m100 0
c-3 -5 -23 -9 -43 -9 l-37 2 40 7 c22 4 41 8 43 9 2 0 0 -3 -3 -9z m-558 -6
c-3 -3 -12 -4 -19 -1 -8 3 -5 6 6 6 11 1 17 -2 13 -5z m91 -1 c-16 -2 -40 -2
-55 0 -16 2 -3 4 27 4 30 0 43 -2 28 -4z m142 -14 c0 -6 -4 -7 -10 -4 -5 3
-10 11 -10 16 0 6 5 7 10 4 6 -3 10 -11 10 -16z m580 1 c18 -12 2 -12 -25 0
-13 6 -15 9 -5 9 8 0 22 -4 30 -9z m50 0 c0 -5 -4 -10 -10 -10 -5 0 -10 5 -10
10 0 6 5 10 10 10 6 0 10 -4 10 -10z m105 0 c-3 -5 -12 -10 -18 -10 -7 0 -6 4
3 10 19 12 23 12 15 0z m65 0 c0 -5 -5 -10 -11 -10 -5 0 -7 5 -4 10 3 6 8 10
11 10 2 0 4 -4 4 -10z m205 -10 c13 -6 15 -9 5 -9 -8 0 -22 4 -30 9 -18 12 -2
12 25 0z m-36 -13 c13 -16 5 -27 -18 -26 -12 0 -11 3 4 9 19 8 19 9 -3 9 -13
1 -20 5 -17 11 8 14 20 13 34 -3z m-252 -3 c-3 -3 -12 -4 -19 -1 -8 3 -5 6 6
6 11 1 17 -2 13 -5z m76 -1 c-13 -2 -33 -2 -45 0 -13 2 -3 4 22 4 25 0 35 -2
23 -4z m637 -3 c14 -5 -9 -6 -55 -3 -44 3 -82 7 -84 9 -8 8 115 2 139 -6z
m-380 -10 c0 -5 -7 -7 -15 -4 -8 4 -15 8 -15 10 0 2 7 4 15 4 8 0 15 -4 15
-10z m163 3 c-7 -2 -19 -2 -25 0 -7 3 -2 5 12 5 14 0 19 -2 13 -5z m256 -19
c2 -2 -16 -4 -42 -4 -25 0 -48 4 -51 9 -5 8 84 3 93 -5z m171 6 c0 -5 12 -11
28 -11 18 -1 21 -3 9 -6 -24 -6 -67 5 -67 17 0 6 7 10 15 10 8 0 15 -4 15 -10z
m63 3 c-7 -2 -19 -2 -25 0 -7 3 -2 5 12 5 14 0 19 -2 13 -5z m70 -8 c4 -8 1
-17 -6 -21 -7 -4 -9 -4 -5 1 4 4 0 14 -10 21 -15 12 -15 13 -1 14 9 0 19 -7
22 -15z m-566 -1 c-3 -3 -12 -4 -19 -1 -8 3 -5 6 6 6 11 1 17 -2 13 -5z m528
-14 c-3 -5 -13 -10 -21 -10 -8 0 -12 5 -9 10 3 6 13 10 21 10 8 0 12 -4 9 -10z
m146 -7 c12 -16 12 -17 -1 -6 -8 6 -26 13 -40 16 l-25 4 26 2 c15 0 33 -7 40
-16z m136 -5 c-3 -8 -6 -5 -6 6 -1 11 2 17 5 13 3 -3 4 -12 1 -19z m-2510
-965 c-1 -180 -2 -35 -2 322 0 358 1 505 2 328 2 -177 2 -469 0 -650z m20 -5
c-1 -178 -2 -33 -2 322 0 355 1 500 2 323 2 -178 2 -468 0 -645z m2528 902 c3
-5 1 -10 -4 -10 -6 0 -11 5 -11 10 0 6 2 10 4 10 3 0 8 -4 11 -10z m-135
-1207 c0 -7 -4 -13 -10 -13 -5 0 -7 7 -4 15 7 18 -7 20 -24 3 -9 -9 -12 -9
-12 0 0 7 5 12 12 12 9 0 9 3 0 12 -24 24 -12 31 13 8 14 -13 25 -29 25 -37z
m-560 3 c0 -3 -4 -8 -10 -11 -5 -3 -10 -1 -10 4 0 6 5 11 10 11 6 0 10 -2 10
-4z m368 -6 c-14 -4 -30 -10 -35 -13 -5 -3 -15 -1 -23 5 -13 8 -13 9 1 5 9 -3
22 -1 30 4 8 5 23 8 34 8 15 -1 14 -3 -7 -9z m265 3 c-7 -2 -21 -2 -30 0 -10
3 -4 5 12 5 17 0 24 -2 18 -5z m-346 -9 c-3 -3 -12 -4 -19 -1 -8 3 -5 6 6 6
11 1 17 -2 13 -5z m-627 -34 c-8 -5 -24 -9 -35 -9 l-20 0 20 9 c11 5 27 9 35
9 13 1 13 0 0 -9z m103 3 c-7 -2 -19 -2 -25 0 -7 3 -2 5 12 5 14 0 19 -2 13
-5z m50 0 c-7 -2 -19 -2 -25 0 -7 3 -2 5 12 5 14 0 19 -2 13 -5z m37 -13 c0
-5 -5 -10 -11 -10 -5 0 -7 5 -4 10 3 6 8 10 11 10 2 0 4 -4 4 -10z m-605 -10
c-3 -5 -14 -10 -23 -9 -14 0 -13 2 3 9 27 11 27 11 20 0z m118 -2 c15 -11 10
-13 -33 -16 -46 -2 -60 4 -43 21 11 11 58 8 76 -5z m-328 -8 c-11 -5 -31 -8
-45 -8 -23 0 -22 1 5 8 42 11 65 11 40 0z m-146 -4 c-2 -2 -22 -6 -44 -9 -27
-4 -35 -3 -25 3 14 9 79 15 69 6z m58 -2 c-3 -3 -12 -4 -19 -1 -8 3 -5 6 6 6
11 1 17 -2 13 -5z m566 -1 c-13 -2 -35 -2 -50 0 -16 2 -5 4 22 4 28 0 40 -2
28 -4z m-463 -13 c0 -5 -19 -9 -42 -9 -40 1 -41 2 -13 9 44 11 55 11 55 0z
m213 3 c-7 -2 -19 -2 -25 0 -7 3 -2 5 12 5 14 0 19 -2 13 -5z m-1063 -29 c0
-2 -7 -4 -15 -4 -8 0 -15 4 -15 10 0 5 7 7 15 4 8 -4 15 -8 15 -10z m35 6 c-3
-5 -11 -10 -16 -10 -6 0 -7 5 -4 10 3 6 11 10 16 10 6 0 7 -4 4 -10z m58 -7
c-7 -2 -19 -2 -25 0 -7 3 -2 5 12 5 14 0 19 -2 13 -5z m37 -13 c0 -5 -4 -10
-10 -10 -5 0 -10 5 -10 10 0 6 5 10 10 10 6 0 10 -4 10 -10z m-46 -8 c2 -4
-24 -8 -60 -7 -35 0 -64 3 -64 8 0 10 117 9 124 -1z m114 1 c-10 -2 -28 -2
-40 0 -13 2 -5 4 17 4 22 1 32 -1 23 -4z"/>
<path d="M7533 12743 c9 -2 23 -2 30 0 6 3 -1 5 -18 5 -16 0 -22 -2 -12 -5z"/>
<path d="M6880 14220 c0 -5 7 -10 16 -10 8 0 12 5 9 10 -3 6 -10 10 -16 10 -5
0 -9 -4 -9 -10z"/>
<path d="M12620 12150 l0 -1630 4378 2 4377 3 0 1625 0 1625 -4377 3 -4378 2
0 -1630z"/>
<path d="M7925 12740 l-40 -7 35 -1 c19 0 46 4 60 8 32 10 2 10 -55 0z"/>
<path d="M7756 10410 c-21 -53 -55 -131 -68 -154 -6 -12 -8 -60 -4 -125 4 -58
15 -263 27 -456 11 -192 22 -356 24 -362 2 -8 21 -13 44 -13 29 0 40 4 43 18
2 9 -2 150 -8 312 -13 321 -24 672 -24 763 0 31 -4 57 -9 57 -5 0 -16 -18 -25
-40z"/>
<path d="M7830 10400 c0 -25 7 -282 17 -572 l17 -528 538 0 538 0 0 38 c0 20
14 261 30 536 17 274 30 514 30 532 l0 34 -585 2 -585 3 0 -45z"/>
<path d="M6298 8273 c56 -2 148 -2 205 0 56 1 10 3 -103 3 -113 0 -159 -2
-102 -3z"/>
<path d="M6690 7777 l0 -117 45 0 45 0 1 53 c0 28 2 59 4 68 2 10 -18 38 -46
65 l-49 48 0 -117z"/>
<path d="M7160 7565 l0 -85 70 0 70 0 0 85 0 85 -70 0 -70 0 0 -85z"/>
<path d="M10230 7565 l0 -85 70 0 70 0 0 85 0 85 -70 0 -70 0 0 -85z"/>
<path d="M5344 6078 c3 -40 8 -176 11 -303 3 -126 8 -295 11 -375 6 -181 34
-1076 34 -1107 0 -21 4 -23 55 -23 l55 0 0 130 0 130 255 0 255 0 0 -130 0
-130 40 0 40 0 0 130 0 130 295 0 295 0 0 -130 0 -130 30 0 30 0 0 68 c0 101
28 1398 35 1620 l6 192 -40 0 c-40 0 -41 -1 -41 -35 l0 -35 -610 0 -610 0 0
35 0 35 -76 0 -76 0 6 -72z m739 -795 c4 -54 7 -180 7 -280 l0 -183 35 0 35 0
0 280 0 280 270 0 270 0 0 -178 c0 -99 -3 -274 -7 -390 l-6 -212 -587 0 -587
0 -6 197 c-4 108 -7 283 -7 390 l0 193 288 0 289 0 6 -97z"/>
<path d="M10650 6133 c0 -87 56 -1849 59 -1860 1 -2 26 -3 56 -3 l55 0 0 130
0 130 204 0 203 0 7 -37 c3 -21 6 -80 6 -130 l0 -93 35 0 35 0 0 130 0 130
346 0 346 0 -7 -131 -8 -130 34 3 34 3 17 755 c9 415 17 837 17 938 l1 182
-35 0 c-33 0 -35 -2 -35 -35 l0 -35 -615 0 -615 0 0 35 0 35 -70 0 c-59 0 -70
-3 -70 -17z m243 -890 c4 -75 7 -201 7 -280 l0 -143 35 0 35 0 0 280 0 280
520 0 520 0 -6 -377 c-3 -208 -7 -384 -10 -390 -3 -10 -129 -13 -589 -13 -459
0 -587 3 -590 13 -2 6 -6 182 -7 390 l-3 377 41 0 41 0 6 -137z"/>
<path d="M16285 6013 c3 -76 12 -361 20 -633 24 -813 26 -870 30 -990 l5 -115
55 -3 55 -3 0 131 0 130 54 0 53 0 1 -32 c0 -18 0 -77 1 -130 l1 -98 40 0 40
0 0 130 0 130 400 0 400 0 0 -130 c0 -123 1 -130 20 -130 19 0 20 7 20 130 l0
130 75 0 75 0 0 -130 0 -130 25 0 c14 0 27 6 30 13 2 6 11 383 19 837 9 454
18 871 21 928 l6 102 -41 0 c-39 0 -40 -1 -40 -35 l0 -35 -610 0 -610 0 0 35
0 35 -76 0 -75 0 6 -137z m1350 -1015 c-4 -211 -9 -386 -12 -390 -2 -5 -266
-8 -587 -8 l-583 0 -6 113 c-4 61 -7 237 -7 390 l0 277 601 0 601 0 -7 -382z"/>
<path d="M21915 6058 c11 -198 46 -1460 42 -1465 -3 -3 -20 9 -37 27 -17 18
-33 30 -35 29 -1 -2 0 -88 3 -191 l5 -188 93 0 94 0 0 130 0 129 340 3 340 3
0 -132 c0 -126 1 -133 20 -133 19 0 20 7 21 113 1 61 4 121 7 132 7 19 16 20
230 20 l222 0 0 -132 0 -133 30 0 30 0 0 64 c0 93 28 1389 35 1619 l6 197 -40
0 c-40 0 -41 -1 -41 -35 l0 -35 -610 0 -610 0 0 35 0 35 -75 0 -74 0 4 -92z
m1197 -950 c-2 -167 1 -275 7 -281 19 -19 22 36 19 296 l-3 257 70 0 70 0 -6
-302 c-4 -167 -7 -343 -8 -393 l-1 -90 -588 3 -589 2 -6 212 c-4 116 -7 293
-7 392 l0 181 522 -3 523 -2 -3 -272z"/>
<path d="M27224 6003 c3 -82 15 -463 26 -848 11 -385 23 -742 26 -792 6 -92 6
-93 32 -93 27 0 27 0 26 78 -1 42 -4 84 -8 92 -4 9 -5 118 -4 243 2 125 -1
227 -5 227 -5 0 -7 108 -5 239 2 132 0 237 -4 234 -5 -2 -9 92 -10 209 -1 117
-3 269 -4 338 -2 69 -3 146 -3 173 l-1 47 -36 0 -37 0 7 -147z"/>
<path d="M27312 6065 c0 -16 2 -22 5 -12 2 9 2 23 0 30 -3 6 -5 -1 -5 -18z"/>
<path d="M25124 5795 c3 -148 9 -429 12 -623 l7 -353 31 3 31 3 3 108 c2 87 0
107 -10 101 -10 -6 -11 -5 -1 7 10 12 13 124 12 472 l0 455 -45 49 -46 48 6
-270z m63 -27 c-3 -8 -6 -5 -6 6 -1 11 2 17 5 13 3 -3 4 -12 1 -19z m10 -924
c-3 -3 -12 -4 -19 -1 -8 3 -5 6 6 6 11 1 17 -2 13 -5z"/>
<path d="M8882 5998 c-9 -9 -12 -155 -12 -595 0 -576 0 -583 20 -583 20 0 20
7 20 595 0 327 -4 595 -8 595 -4 0 -13 -5 -20 -12z"/>
<path d="M20316 5498 c3 -172 7 -395 10 -495 l6 -183 34 0 34 0 0 415 0 416
-25 50 c-68 133 -63 148 -59 -203z"/>
<path d="M13696 5688 c-14 -27 -16 -89 -16 -450 0 -411 0 -418 20 -418 20 0
20 7 20 450 0 248 -2 450 -4 450 -3 0 -12 -14 -20 -32z"/>
<path d="M27312 5575 c0 -16 2 -22 5 -12 2 9 2 23 0 30 -3 6 -5 -1 -5 -18z"/>
<path d="M27333 5400 c0 -25 2 -35 4 -22 2 12 2 32 0 45 -2 12 -4 2 -4 -23z"/>
<path d="M27408 5423 c6 -2 18 -2 25 0 6 3 1 5 -13 5 -14 0 -19 -2 -12 -5z"/>
<path d="M27356 5404 c-9 -24 -7 -44 5 -44 5 0 8 4 5 9 -4 5 0 12 6 14 10 4 9
6 -1 6 -11 1 -11 4 -1 16 7 9 8 15 2 15 -5 0 -13 -7 -16 -16z"/>
<path d="M27390 5400 c0 -5 5 -10 11 -10 5 0 7 5 4 10 -3 6 -8 10 -11 10 -2 0
-4 -4 -4 -10z"/>
<path d="M4857 5391 c-2 -3 0 -123 4 -266 16 -543 18 -653 19 -752 l0 -103 50
0 50 0 0 560 0 560 -27 1 c-16 1 -43 2 -61 4 -18 1 -34 -1 -35 -4z"/>
<path d="M10204 5286 c3 -61 9 -250 12 -421 4 -170 8 -328 9 -350 1 -22 3 -86
4 -142 l1 -103 50 0 50 0 0 560 0 560 -32 1 c-18 1 -48 2 -67 4 l-34 2 7 -111z"/>
<path d="M15340 5356 c0 -23 7 -248 15 -501 8 -253 15 -488 15 -522 l0 -63 50
0 50 0 0 560 0 560 -35 2 c-19 1 -48 2 -65 3 -29 2 -30 0 -30 -39z"/>
<path d="M15933 5189 c4 -117 7 -247 7 -291 l0 -78 35 0 35 0 0 285 c0 264 -1
285 -17 286 -10 0 -29 2 -42 5 l-24 4 6 -211z"/>
<path d="M20870 5360 c0 -19 7 -253 15 -520 8 -267 15 -515 15 -552 0 -66 1
-68 25 -68 20 0 25 5 25 25 0 20 5 25 25 25 l25 0 0 559 0 559 -65 4 -65 3 0
-35z"/>
<path d="M7730 4805 l0 -585 23 0 24 0 6 293 c4 160 7 424 7 585 l0 292 -30 0
-30 0 0 -585z"/>
<path d="M13080 4830 c0 -547 0 -560 19 -560 14 0 21 -8 24 -27 2 -16 5 71 6
192 0 121 4 385 8 588 l6 367 -31 0 -32 0 0 -560z"/>
<path d="M18070 5105 c0 -278 0 -285 20 -285 20 0 20 7 20 285 0 278 0 285
-20 285 -20 0 -20 -7 -20 -285z"/>
<path d="M18600 4830 l0 -560 25 0 c14 0 28 6 30 13 2 6 5 258 7 560 l3 547
-32 0 -33 0 0 -560z"/>
<path d="M23752 4833 c3 -550 3 -558 23 -558 19 0 20 7 21 155 1 85 5 336 8
558 l7 402 -31 0 -30 0 2 -557z"/>
<path d="M26220 5308 c0 -46 7 -301 15 -568 8 -267 15 -493 15 -503 0 -14 7
-17 38 -15 20 1 40 7 44 12 10 14 10 453 1 458 -5 2 -6 86 -3 186 3 101 3 185
1 187 -2 2 -3 56 -2 120 2 98 0 115 -13 115 -10 0 -16 9 -15 23 0 20 1 20 8 3
8 -22 15 -15 25 26 4 16 1 30 -6 34 -7 5 -9 2 -6 -8 5 -11 0 -14 -18 -10 -13
2 -24 8 -24 13 0 5 -13 9 -30 9 l-30 0 0 -82z m67 5 c-3 -10 -5 -4 -5 12 0 17
2 24 5 18 2 -7 2 -21 0 -30z m10 -535 c-3 -8 -6 -5 -6 6 -1 11 2 17 5 13 3 -3
4 -12 1 -19z m16 -205 c-2 -109 -4 -200 -5 -203 -1 -3 -5 76 -8 175 -3 111 -1
189 5 202 6 13 10 23 10 23 0 0 -1 -89 -2 -197z m14 75 c-3 -7 -5 -2 -5 12 0
14 2 19 5 13 2 -7 2 -19 0 -25z m-7 -298 c0 -5 -2 -10 -4 -10 -3 0 -8 5 -11
10 -3 6 -1 10 4 10 6 0 11 -4 11 -10z m-11 -67 c-1 -53 -6 -49 -11 10 -2 20 0
37 4 37 4 0 8 -21 7 -47z"/>
<path d="M27373 5200 c0 -41 2 -58 4 -37 2 20 2 54 0 75 -2 20 -4 3 -4 -38z"/>
<path d="M27323 5040 c0 -47 2 -66 4 -42 2 23 2 61 0 85 -2 23 -4 4 -4 -43z"/>
<path d="M27371 5034 c0 -11 3 -14 6 -6 3 7 2 16 -1 19 -3 4 -6 -2 -5 -13z"/>
<path d="M27343 4880 c0 -47 2 -66 4 -42 2 23 2 61 0 85 -2 23 -4 4 -4 -43z"/>
<path d="M27371 4754 c0 -11 3 -14 6 -6 3 7 2 16 -1 19 -3 4 -6 -2 -5 -13z"/>
<path d="M27337 4700 c3 -11 7 -20 9 -20 2 0 4 9 4 20 0 11 -4 20 -9 20 -5 0
-7 -9 -4 -20z"/>
<path d="M26934 4615 c3 -44 8 -216 12 -382 6 -271 8 -303 23 -303 13 0 16 11
15 62 -7 309 -7 558 -1 564 4 4 8 26 9 48 l1 41 7 -45 8 -45 -2 45 c0 25 -5
45 -11 45 -5 0 -13 -20 -16 -45 l-7 -45 1 54 c1 46 -2 57 -22 70 l-23 15 6
-79z"/>
<path d="M7073 4662 c-9 -6 -13 -98 -15 -370 -3 -330 -2 -362 13 -362 15 0 18
23 23 193 11 341 12 547 1 547 -5 0 -16 -4 -22 -8z"/>
<path d="M12138 4603 c-12 -14 -17 -55 -23 -175 -7 -155 -7 -158 14 -158 19 0
20 6 23 175 2 96 3 175 2 175 0 0 -8 -8 -16 -17z"/>
<path d="M27370 4611 c0 -6 4 -13 10 -16 6 -3 7 1 4 9 -7 18 -14 21 -14 7z"/>
<path d="M27400 4577 c0 -18 -2 -19 -11 -7 -9 13 -10 12 -5 -2 3 -10 0 -18 -6
-18 -6 0 -8 -3 -5 -6 4 -4 13 -1 22 6 12 10 15 10 15 -4 0 -9 7 -16 16 -16 14
0 14 1 0 16 -19 18 -20 31 -4 36 7 3 6 7 -5 11 -13 5 -17 1 -17 -16z"/>
<path d="M28030 4546 c0 -2 7 -7 16 -10 8 -3 12 -2 9 4 -6 10 -25 14 -25 6z"/>
<path d="M26990 4524 c0 -8 5 -12 10 -9 6 3 10 10 10 16 0 5 -4 9 -10 9 -5 0
-10 -7 -10 -16z"/>
<path d="M27998 4503 c7 -3 16 -2 19 1 4 3 -2 6 -13 5 -11 0 -14 -3 -6 -6z"/>
<path d="M26997 4483 c-4 -3 -7 -70 -7 -147 0 -95 3 -136 10 -126 7 11 10 7
11 -20 2 -33 2 -33 6 -6 3 16 -1 39 -7 51 -7 13 -10 63 -8 138 2 64 3 117 2
117 0 0 -4 -3 -7 -7z"/>
<path d="M28011 4464 c0 -11 3 -14 6 -6 3 7 2 16 -1 19 -3 4 -6 -2 -5 -13z"/>
<path d="M27014 4340 c0 -58 1 -81 3 -52 2 28 2 76 0 105 -2 28 -3 5 -3 -53z"/>
<path d="M27350 4311 c0 -10 19 -25 25 -20 1 2 -3 10 -11 17 -8 7 -14 8 -14 3z"/>
<path d="M26991 4113 c0 -29 3 -53 8 -53 5 0 12 -10 14 -22 2 -13 2 -9 0 7 -2
17 -8 50 -12 75 l-8 45 -2 -52z"/>
<path d="M27286 3973 c2 -104 7 -221 10 -261 6 -72 6 -73 32 -70 19 2 25 8 22
18 -3 8 -6 69 -8 135 -6 298 -9 325 -27 345 -10 11 -22 20 -26 20 -5 0 -6 -84
-3 -187z"/>
<path d="M6708 4095 l-28 -24 0 -216 0 -215 25 0 c33 0 36 24 33 272 l-3 206
-27 -23z"/>
<path d="M27342 4060 c0 -14 2 -19 5 -12 2 6 2 18 0 25 -3 6 -5 1 -5 -13z"/>
<path d="M27375 4060 c3 -5 8 -10 11 -10 2 0 4 5 4 10 0 6 -5 10 -11 10 -5 0
-7 -4 -4 -10z"/>
<path d="M27006 3955 c-3 -8 -1 -15 4 -15 6 0 10 7 10 15 0 8 -2 15 -4 15 -2
0 -6 -7 -10 -15z"/>
<path d="M27370 3850 c0 -5 5 -10 11 -10 5 0 7 5 4 10 -3 6 -8 10 -11 10 -2 0
-4 -4 -4 -10z"/>
<path d="M27381 3657 c-13 -21 -12 -21 5 -5 10 10 16 20 13 22 -3 3 -11 -5
-18 -17z"/>
<path d="M1187 3278 c6 -216 16 -564 22 -773 6 -209 13 -429 16 -490 3 -60 7
-195 10 -300 3 -104 7 -260 10 -345 3 -85 7 -234 10 -330 3 -96 10 -296 15
-445 5 -148 10 -285 10 -302 l0 -33 71 0 70 0 -5 223 c-3 122 -8 394 -11 605
l-6 382 345 0 346 0 1 -97 c1 -54 3 -136 5 -183 1 -47 5 -187 9 -312 l7 -228
44 0 44 0 -2 410 -3 410 403 0 404 0 -8 -605 -7 -605 36 0 36 0 5 53 c3 28 8
201 11 382 9 518 53 2621 59 2808 l6 168 -53 -3 -52 -3 -3 -47 -3 -48 -830 0
-829 0 0 50 0 50 -97 0 -98 0 12 -392z m998 -1038 l7 -380 44 0 44 0 0 380 0
380 370 0 369 0 -5 -412 c-2 -227 -7 -464 -10 -525 l-6 -113 -797 0 -798 0 -6
248 c-4 136 -7 372 -7 525 l0 277 394 0 394 0 7 -380z"/>
<path d="M8374 3568 c3 -57 8 -184 11 -283 3 -99 16 -551 30 -1005 13 -454 27
-888 30 -965 2 -77 9 -304 15 -505 6 -201 13 -407 16 -458 l6 -92 69 0 c67 0
69 1 65 23 -3 12 -8 284 -11 605 l-6 582 285 0 286 0 1 -182 c0 -216 7 -440
15 -555 l6 -83 45 0 46 0 -7 410 -8 410 467 0 466 0 -6 -458 c-3 -251 -8 -523
-11 -604 l-5 -148 40 0 c23 0 41 1 41 3 3 16 70 3152 70 3260 l0 147 -44 0
c-52 0 -60 -9 -58 -62 l2 -38 -830 0 -829 0 -3 48 -3 47 -98 3 -98 3 5 -103z
m330 -1150 c4 -112 7 -282 9 -378 l2 -175 43 -3 42 -3 0 380 0 381 708 0 707
0 -2 -252 c-2 -139 -6 -376 -9 -525 l-6 -273 -798 0 -798 0 -6 163 c-3 89 -7
325 -10 525 l-4 362 58 0 58 0 6 -202z"/>
<path d="M16014 3543 c6 -111 26 -760 41 -1318 2 -99 7 -247 10 -330 7 -189
23 -725 23 -745 -1 -56 24 -777 28 -827 l6 -63 65 0 66 0 -7 605 -8 605 71 0
c49 0 73 -4 76 -12 2 -7 6 -121 9 -253 3 -132 9 -311 13 -397 l6 -158 45 0 44
0 -4 410 -3 410 544 2 544 3 -6 -412 -6 -413 23 0 c21 0 24 6 30 61 3 34 6
124 6 199 0 75 3 232 7 348 l6 212 99 0 99 0 -6 -368 c-3 -202 -8 -474 -11
-604 l-5 -238 40 0 c23 0 41 1 41 3 3 62 70 3227 70 3300 l0 107 -50 0 -50 0
0 -50 0 -50 -830 0 -830 0 0 50 0 50 -101 0 -101 0 6 -127z m1831 -1630 l-7
-343 -798 0 -798 0 -6 93 c-3 50 -7 287 -10 524 l-5 433 812 2 812 3 3 -185
c2 -102 0 -339 -3 -527z"/>
<path d="M23654 3523 c4 -81 18 -524 31 -983 14 -459 26 -870 28 -912 2 -43 1
-78 -3 -78 -4 0 -28 21 -55 48 l-47 47 6 -185 c3 -102 8 -315 12 -475 3 -159
7 -300 10 -313 4 -19 11 -22 49 -22 l45 0 2 143 c1 102 5 47 13 -193 7 -184
13 -336 13 -337 1 -2 32 -3 68 -3 l66 0 -7 607 -8 608 469 -2 c441 -3 469 -4
465 -20 -2 -10 -6 -195 -8 -411 l-4 -392 25 0 26 0 0 113 c2 322 13 712 21
711 5 -1 144 -2 310 -2 l300 -2 -5 -262 c-3 -145 -8 -417 -11 -605 l-6 -343
39 0 39 0 7 238 c11 390 26 1123 31 1511 3 201 8 367 10 370 10 9 5 190 -5
196 -6 4 -9 52 -8 118 l2 112 6 -100 7 -100 1 115 c0 63 3 129 6 145 2 17 6
203 8 415 l3 385 -45 0 -45 0 0 -47 c0 -48 -5 -54 -44 -48 -8 1 -18 -4 -22
-12 -7 -10 -9 -10 -9 0 0 9 -166 12 -797 12 l-798 0 0 48 0 47 -99 3 -98 3 6
-148z m1919 -663 c-3 -11 -7 -20 -9 -20 -2 0 -4 9 -4 20 0 11 4 20 9 20 5 0 7
-9 4 -20z m-16 -182 c-2 -24 -4 -5 -4 42 0 47 2 66 4 43 2 -24 2 -62 0 -85z
m-297 -50 c0 6 3 12 8 12 4 0 6 -173 4 -385 -2 -341 0 -386 13 -392 9 -3 19
-2 22 1 4 4 8 176 10 383 l3 376 86 0 c50 0 90 -5 97 -12 8 -8 8 -11 -1 -11
-9 0 -12 -77 -11 -310 0 -170 -2 -314 -5 -318 -3 -5 -5 -96 -5 -202 0 -106 -2
-194 -4 -197 -3 -2 -1376 -5 -1599 -3 -5 0 -8 164 -8 364 0 201 -3 367 -7 369
-5 3 -6 75 -3 161 l5 157 688 -1 c547 0 687 2 687 12 0 9 3 8 10 -2 6 -10 10
-11 10 -2z m308 -158 c-1 -96 -6 -82 -10 32 -2 42 0 71 4 65 4 -7 7 -50 6 -97z
m-61 -122 c-3 -8 -6 -5 -6 6 -1 11 2 17 5 13 3 -3 4 -12 1 -19z m47 -243 c5
-22 4 -26 -4 -15 -5 8 -10 24 -10 34 0 26 6 18 14 -19z m-27 -17 c-3 -8 -6 -5
-6 6 -1 11 2 17 5 13 3 -3 4 -12 1 -19z m-10 -120 c-3 -8 -6 -5 -6 6 -1 11 2
17 5 13 3 -3 4 -12 1 -19z m10 -70 c-3 -8 -6 -5 -6 6 -1 11 2 17 5 13 3 -3 4
-12 1 -19z m-1800 -905 c-2 -21 -4 -4 -4 37 0 41 2 58 4 38 2 -21 2 -55 0 -75z"/>
<path d="M30850 3608 c0 -35 4 -184 10 -333 5 -148 10 -331 11 -405 0 -74 5
-216 10 -315 4 -99 11 -283 14 -410 3 -126 8 -291 11 -365 10 -267 44 -1386
44 -1452 l0 -68 71 0 70 0 -6 542 c-3 299 -8 571 -11 606 l-5 62 407 0 407 0
-6 -410 -6 -410 23 0 c21 0 24 5 29 68 4 37 7 157 7 267 0 110 3 264 7 343 l6
142 369 0 369 0 -5 -47 c-3 -27 -8 -299 -11 -605 l-6 -558 40 0 41 0 0 78 c0
42 16 795 35 1672 19 877 35 1610 35 1628 0 32 0 32 -50 32 -48 0 -50 -1 -50
-27 0 -16 -3 -38 -6 -50 l-6 -23 -823 0 c-912 0 -835 -6 -835 66 l0 34 -95 0
-95 0 0 -62z m950 -1368 c0 -373 0 -380 20 -380 20 0 20 7 20 380 l0 380 427
0 426 0 -6 -362 c-4 -199 -7 -435 -7 -525 l0 -163 -805 0 -805 0 0 163 c0 90
-3 326 -7 525 l-6 362 371 0 372 0 0 -380z"/>
<path d="M28003 3319 c4 -123 10 -502 13 -841 l7 -618 49 0 48 0 0 741 0 741
-25 -16 c-13 -9 -27 -16 -30 -16 -10 0 -5 131 6 152 8 15 8 19 0 14 -6 -4 -11
-1 -11 8 0 8 -14 25 -32 37 l-31 23 6 -225z"/>
<path d="M5983 3471 l-23 -19 0 -796 0 -796 30 0 30 0 0 815 c0 448 -3 815 -7
815 -5 -1 -18 -9 -30 -19z"/>
<path d="M28087 3449 c7 -7 15 -10 18 -7 3 3 -2 9 -12 12 -14 6 -15 5 -6 -5z"/>
<path d="M21485 2760 c3 -250 8 -500 10 -555 2 -55 4 -155 5 -222 l0 -123 45
0 45 0 0 575 0 574 -55 103 -55 103 5 -455z"/>
<path d="M12508 3050 l-28 -50 0 -570 0 -570 30 0 30 0 0 620 c0 341 -1 620
-2 620 -2 0 -15 -23 -30 -50z"/>
<path d="M517 2644 c-3 -5 3 -306 13 -669 10 -363 20 -722 21 -797 l3 -138 63
0 63 0 0 800 0 800 -27 0 c-16 0 -51 3 -79 6 -28 4 -54 2 -57 -2z"/>
<path d="M7775 2645 c-7 -3 -4 -205 7 -597 9 -326 17 -660 19 -743 2 -82 5
-176 7 -207 l4 -58 64 0 64 0 0 800 0 800 -27 0 c-16 0 -50 2 -78 5 -27 2 -54
2 -60 0z"/>
<path d="M14738 2643 c-3 -4 1 -195 8 -423 6 -228 15 -527 19 -665 3 -137 8
-295 11 -350 2 -55 4 -115 4 -132 l0 -33 65 0 65 0 0 800 0 800 -37 1 c-21 0
-59 3 -85 5 -25 3 -48 2 -50 -3z"/>
<path d="M15536 2642 c-3 -6 -2 -142 4 -304 5 -161 10 -335 10 -385 l0 -93 45
0 45 0 0 390 c0 375 -1 390 -19 390 -10 0 -32 3 -49 6 -16 3 -32 1 -36 -4z"/>
<path d="M29494 2396 c3 -138 10 -390 15 -561 5 -170 9 -317 9 -325 0 -8 3
-117 7 -242 l8 -228 63 0 64 0 0 800 0 800 -42 2 c-24 1 -63 2 -87 3 l-43 2 6
-251z"/>
<path d="M4420 1840 l0 -800 29 0 29 0 6 133 c3 72 8 432 11 800 l5 667 -40 0
-40 0 0 -800z"/>
<path d="M11670 1840 l0 -800 35 0 35 0 0 243 c0 134 3 494 7 800 l6 557 -41
0 -42 0 0 -800z"/>
<path d="M18440 2250 l0 -390 25 0 25 0 0 390 0 390 -25 0 -25 0 0 -390z"/>
<path d="M19160 1840 l0 -800 34 0 34 0 6 293 c3 160 8 520 11 800 l5 507 -45
0 -45 0 0 -800z"/>
<path d="M22240 2528 c0 -62 9 -419 20 -793 11 -374 20 -683 20 -687 0 -5 29
-8 65 -8 l65 0 0 800 0 800 -85 0 -85 0 0 -112z"/>
<path d="M26140 1840 l0 -800 33 0 34 0 6 576 c5 501 4 579 -9 599 -9 15 -11
24 -5 27 18 5 16 113 -3 139 -13 18 -16 49 -16 141 0 111 -1 118 -20 118 -20
0 -20 -7 -20 -800z m50 522 c0 -13 -12 -22 -22 -16 -10 6 -1 24 13 24 5 0 9
-4 9 -8z m5 -172 c-3 -5 -10 -10 -16 -10 -5 0 -9 5 -9 10 0 6 7 10 16 10 8 0
12 -4 9 -10z"/>
<path d="M26194 2520 c0 -69 1 -97 3 -62 2 34 2 90 0 125 -2 34 -3 6 -3 -63z"/>
<path d="M26214 2510 c0 -74 1 -105 3 -67 2 37 2 97 0 135 -2 37 -3 6 -3 -68z"/>
<path d="M33390 1840 l0 -800 34 0 34 0 6 533 c4 292 8 652 9 800 l2 267 -42
0 -43 0 0 -800z"/>
<path d="M30463 1488 c4 -106 9 -314 12 -463 3 -148 8 -294 11 -322 l5 -53 46
0 46 0 -6 293 c-4 160 -7 383 -7 495 l0 203 -46 19 c-25 11 -50 20 -56 20 -8
0 -9 -59 -5 -192z"/>
<path d="M3539 1655 l-26 -14 -6 -227 c-4 -125 -7 -348 -7 -496 l0 -268 25 0
25 0 1 113 c0 61 4 290 8 507 5 217 8 396 7 397 0 1 -13 -5 -27 -12z"/>
<path d="M10389 1571 c-23 -19 -24 -24 -31 -223 -3 -111 -6 -314 -7 -450 l-1
-248 25 0 c25 0 25 0 26 98 0 53 4 264 8 467 5 204 7 371 6 373 -1 1 -13 -6
-26 -17z"/>
</g>
</svg>
